<svg width="24" height="24" viewBox="0 0 24 24" fill="none" xmlns="http://www.w3.org/2000/svg">
<path d="M11.1612 1.79556C11.7091 1.63602 12.2911 1.63602 12.8389 1.79556C13.219 1.90627 13.5342 2.10095 13.8284 2.32363C14.1053 2.53334 14.4172 2.81061 14.7764 3.1299L14.7765 3.12995L20.0433 7.81159L20.1273 7.88619L20.1273 7.8862C20.649 8.34942 21.0431 8.69935 21.3312 9.13277C21.5748 9.49916 21.7562 9.90321 21.8682 10.3287C22.0008 10.832 22.0005 11.359 22.0001 12.0566L22.0001 12.169V16.0355C22.0001 16.9373 22.0001 17.6647 21.9597 18.2567C21.9182 18.8654 21.8306 19.4037 21.6195 19.9134C21.112 21.1386 20.1386 22.1119 18.9135 22.6194C18.4038 22.8305 17.8655 22.9181 17.2568 22.9596C16.6648 23 15.9374 23 15.0356 23H8.96455C8.0628 23 7.33539 23 6.74338 22.9596C6.13464 22.9181 5.59636 22.8305 5.08666 22.6194C3.86152 22.1119 2.88815 21.1385 2.38068 19.9134C2.16955 19.4037 2.08199 18.8654 2.04046 18.2567C2.00006 17.6647 2.00007 16.9373 2.00008 16.0355L2.00008 12.169L2.00004 12.0566C1.99967 11.359 1.9994 10.832 2.13192 10.3287C2.24395 9.90321 2.4254 9.49916 2.66896 9.13277C2.95708 8.69935 3.35117 8.34941 3.87284 7.8862L3.95683 7.81159L9.22366 3.12996C9.58287 2.81064 9.8948 2.53335 10.1718 2.32363C10.4659 2.10095 10.7811 1.90627 11.1612 1.79556Z" fill="black"/>
</svg>
