<svg width="24" height="24" viewBox="0 0 24 24" fill="none" xmlns="http://www.w3.org/2000/svg">
<path fill-rule="evenodd" clip-rule="evenodd" d="M12.2797 3.71579C12.0971 3.66261 11.9031 3.66261 11.7205 3.71579C11.6679 3.7311 11.5755 3.7694 11.379 3.91817C11.1724 4.07463 10.9194 4.29855 10.5252 4.64896L5.28556 9.3064C4.64321 9.87739 4.46111 10.0496 4.33452 10.24C4.21274 10.4232 4.12201 10.6252 4.066 10.8379C4.00777 11.0591 4.00008 11.3095 4.00008 12.169V16C4.00008 16.9456 4.00062 17.6047 4.03582 18.1205C4.0704 18.6275 4.13508 18.9227 4.22844 19.148C4.53292 19.8831 5.11694 20.4672 5.85202 20.7716C6.07741 20.865 6.37261 20.9297 6.87952 20.9643C7.39542 20.9995 8.05451 21 9.00007 21H15.0001C15.9456 21 16.6047 20.9995 17.1206 20.9643C17.6275 20.9297 17.9227 20.865 18.1481 20.7716C18.8832 20.4672 19.4672 19.8831 19.7717 19.148C19.8651 18.9227 19.9297 18.6275 19.9643 18.1205C19.9995 17.6047 20.0001 16.9456 20.0001 16V12.169C20.0001 11.3095 19.9924 11.0591 19.9342 10.8379C19.8781 10.6252 19.7874 10.4232 19.6656 10.24C19.539 10.0496 19.3569 9.87739 18.7146 9.3064L13.475 4.64896C13.0808 4.29855 12.8278 4.07463 12.6211 3.91817C12.4246 3.7694 12.3322 3.7311 12.2797 3.71579ZM11.1612 1.79556C11.7091 1.63602 12.2911 1.63602 12.8389 1.79556C13.219 1.90627 13.5342 2.10095 13.8284 2.32363C14.1054 2.53335 14.4173 2.81064 14.7765 3.12995L20.0433 7.81159C20.0717 7.83679 20.0997 7.86165 20.1273 7.88619C20.649 8.34941 21.0431 8.69935 21.3312 9.13277C21.5748 9.49916 21.7562 9.90321 21.8682 10.3287C22.0008 10.832 22.0005 11.359 22.0001 12.0566C22.0001 12.0936 22.0001 12.131 22.0001 12.169V16.0355C22.0001 16.9373 22.0001 17.6647 21.9597 18.2567C21.9182 18.8654 21.8306 19.4037 21.6195 19.9134C21.112 21.1386 20.1386 22.1119 18.9135 22.6194C18.4038 22.8305 17.8655 22.9181 17.2568 22.9596C16.6648 23 15.9374 23 15.0356 23H8.96455C8.0628 23 7.33539 23 6.74338 22.9596C6.13464 22.9181 5.59636 22.8305 5.08666 22.6194C3.86152 22.1119 2.88815 21.1385 2.38068 19.9134C2.16955 19.4037 2.08199 18.8654 2.04046 18.2567C2.00006 17.6647 2.00007 16.9373 2.00008 16.0355L2.00008 12.169C2.00008 12.131 2.00006 12.0936 2.00004 12.0566C1.99967 11.359 1.9994 10.832 2.13192 10.3287C2.24395 9.90321 2.4254 9.49916 2.66896 9.13277C2.95708 8.69935 3.35117 8.34941 3.87284 7.8862C3.90048 7.86165 3.92848 7.83679 3.95683 7.81159L9.22366 3.12996C9.58287 2.81064 9.8948 2.53335 10.1718 2.32363C10.4659 2.10095 10.7811 1.90627 11.1612 1.79556Z" fill="#1F2329"/>
</svg>
