<svg width="24" height="24" viewBox="0 0 24 24" fill="none" xmlns="http://www.w3.org/2000/svg">
<path fill-rule="evenodd" clip-rule="evenodd" d="M14.75 14.75V20.25H20.25V14.75H14.75ZM13.25 14.6C13.25 13.8544 13.8544 13.25 14.6 13.25H20.4C21.1456 13.25 21.75 13.8544 21.75 14.6V20.4C21.75 21.1456 21.1456 21.75 20.4 21.75H14.6C13.8544 21.75 13.25 21.1456 13.25 20.4V14.6Z" fill="black"/>
<path d="M14.75 20.25V14.75H20.25V20.25H14.75Z" fill="black"/>
<path fill-rule="evenodd" clip-rule="evenodd" d="M3.75 14.75V20.25H9.25V14.75H3.75ZM2.25 14.6C2.25 13.8544 2.85442 13.25 3.6 13.25H9.4C10.1456 13.25 10.75 13.8544 10.75 14.6V20.4C10.75 21.1456 10.1456 21.75 9.4 21.75H3.6C2.85442 21.75 2.25 21.1456 2.25 20.4V14.6Z" fill="black"/>
<path d="M3.75 20.25V14.75H9.25V20.25H3.75Z" fill="black"/>
<path fill-rule="evenodd" clip-rule="evenodd" d="M14.75 3.75V9.25H20.25V3.75H14.75ZM13.25 3.6C13.25 2.85442 13.8544 2.25 14.6 2.25H20.4C21.1456 2.25 21.75 2.85442 21.75 3.6V9.4C21.75 10.1456 21.1456 10.75 20.4 10.75H14.6C13.8544 10.75 13.25 10.1456 13.25 9.4V3.6Z" fill="black"/>
<path d="M14.75 9.25V3.75H20.25V9.25H14.75Z" fill="black"/>
<path fill-rule="evenodd" clip-rule="evenodd" d="M3.75 3.75V9.25H9.25V3.75H3.75ZM2.25 3.6C2.25 2.85442 2.85442 2.25 3.6 2.25H9.4C10.1456 2.25 10.75 2.85442 10.75 3.6V9.4C10.75 10.1456 10.1456 10.75 9.4 10.75H3.6C2.85442 10.75 2.25 10.1456 2.25 9.4V3.6Z" fill="black"/>
<path d="M3.75 9.25V3.75H9.25V9.25H3.75Z" fill="black"/>
</svg>
